<?xml version="1.0" encoding="UTF-8"?>
<svg id="Layer_1" xmlns="http://www.w3.org/2000/svg" version="1.1" viewBox="0 0 89.3 89.5">
  <!-- Generator: Adobe Illustrator 29.7.1, SVG Export Plug-In . SVG Version: 2.1.1 Build 8)  -->
  <defs>
    <style>
      .st0 {
        fill: #090400;
      }

      .st1 {
        fill: #b6b8b7;
      }

      .st2 {
        fill: #f9c193;
      }

      .st3 {
        fill: #3382ac;
      }

      .st4 {
        fill: #fff;
      }

      .st5 {
        fill: #a66d3a;
      }
    </style>
  </defs>
  <g id="right-hand">
    <polygon class="st1" points="78 57.1 74 56.9 74.1 58.3 77.5 58.2 78 57.1 78 57.1"/>
    <path class="st1" d="M74,58.1h-.2c-.2,0-.4-.6-.4-.7-.2-.6,0-1.2,0-1.9.3-1.2.6-2.4.9-3.6.5-1.9,1-3.8,1.4-5.7.3-1.8-.4-2.8-1.2-3.9-.5-.7-1-1.4-1.3-2.4h0v-2.2h0c.2-2.5,2.3-4.6,4.2-5.6.2-.1.4-.1.5-.1s.3,0,.3.1,0,.3,0,.5h0c0,.7-.3,1.3-.5,1.9-.5,1.7-1,3.1.5,4.2.7.5,1.5.9,2.4,1.1h.5c.9,0,2-.4,2.6-1,.2-.2.3-.4.4-.8,0-.4.3-1.2.5-2,.3-1.1.6-2.2.7-2.8,0-.3.2-.5.4-.5s.2,0,.3.2c.2,0,.3.3.5.6.9,1.4,1.5,3,1.6,4.6.3,3.3-1.5,4.5-3.4,5.8-.9.6-1.9,1.3-2.7,2.2-.5.6-.9,1.3-1.1,2.2-.9,3.2-1.7,6.1-2.2,8.8,0,.5-.3.8-.7.9h0c-.2,0-.4,0-.5-.2-.2-.3-.2-.7,0-1,.3-1.6.7-3.1,1.1-4.7.2-.9.5-1.8.7-2.7,0-.5.2-1,0-1.5s-.6-.8-1.1-.8-.7.2-.9.4c-.2.3-.4.6-.6,1.2-.2.8-.4,1.5-.6,2.3-.5,2.1-1.1,4.2-1.5,6.4h0c0,.4-.3.8-.7.8h0Z"/>
    <path class="st1" d="M77.9,32.1c.2,0,.3,0,.3.4-.3,2.3-2.1,4.7,0,6.3.7.5,1.6.9,2.5,1.1h.5c1,0,2.1-.4,2.7-1.1.2-.3.3-.5.4-.8.2-1,.9-3.8,1.2-4.8,0-.2,0-.3.2-.3h.2c.2,0,.3.3.4.5.9,1.3,1.5,2.9,1.6,4.5.4,4.8-3.5,5-6.1,7.9-.5.6-.9,1.5-1.2,2.3-.8,2.9-1.6,5.9-2.2,8.8,0,.3-.2.7-.5.7h0c-.5,0-.6-.6-.4-1,.5-2.5,1.2-4.9,1.8-7.4,0-.5.2-1.1,0-1.6-.2-.6-.7-.9-1.2-.9s-.8.2-1.1.5c-.3.3-.5.8-.6,1.2-.7,2.9-1.5,5.8-2.1,8.7,0,.3-.2.7-.5.7s0,0,0,0c0,0-.2-.3-.3-.6-.2-.6,0-1.2,0-1.8.8-3.1,1.7-6.2,2.4-9.4.5-3-1.8-3.9-2.5-6.4,0-.7,0-1.4,0-2.1h0c.2-2.3,2.1-4.4,4.1-5.4.2,0,.3-.1.4-.1M77.9,31.8h0c-.2,0-.4,0-.6.2h0c-1.1.6-2.1,1.4-2.8,2.3-.9,1.1-1.4,2.2-1.4,3.4h0v2.2h0c.3,1,.8,1.8,1.3,2.5.8,1.1,1.4,2,1.2,3.7-.4,1.9-1,3.8-1.4,5.7-.3,1.2-.6,2.4-.9,3.6-.2.7-.2,1.3,0,2,0,.2.2.7.5.8h.3c.5,0,.8-.7.8-.9h0c.5-2.2,1-4.3,1.5-6.4.2-.8.4-1.5.6-2.3,0-.5.3-.8.5-1.1h0c.2-.2.5-.4.8-.4s.7.2.9.7c.2.5,0,1,0,1.4-.2.9-.4,1.8-.7,2.7-.4,1.5-.8,3.1-1.1,4.7,0,.2-.2.8,0,1.2.2.2.4.3.7.3h0c.2,0,.7-.2.8-1,.6-2.7,1.3-5.6,2.2-8.8.2-.8.6-1.6,1.1-2.2.8-.9,1.8-1.6,2.7-2.2,1.9-1.3,3.8-2.6,3.4-6,0-1.7-.7-3.3-1.6-4.7-.2-.2-.3-.5-.5-.6,0,0-.3-.2-.4-.2s-.5,0-.6.6c0,.6-.4,1.7-.7,2.8-.2.8-.4,1.6-.5,2,0,.3,0,.5-.3.7-.5.6-1.6,1-2.4,1s-.3,0-.5,0c-.9-.2-1.7-.5-2.3-1-.6-.5-.9-1-.9-1.8s.2-1.5.5-2.3c.2-.6.4-1.3.5-1.9h0c0-.3,0-.5-.2-.6,0,0-.2-.2-.5-.2h0Z"/>
    <path class="st1" d="M74.8,58.1c0,0,0-.2,0-.3.4-1.5.9-3.5,1.4-5.3.5-1.9.9-3.7,1.1-4.3,0-.2.2-.5.4-.7.7-.7,1.8,0,1.5.9-.4,1.4-2.1,8-2.5,9.3h0c0,.2.2.3.2.4s-.4,0-.5,0h-1.6Z"/>
    <path class="st1" d="M69.4,74.4c0,0,.2,0,.4,0,.9.4,3.1,1.4,4,1.8.5.2.3.6.2,1.1-.2.7-.4,1.4-.3,2.1,0,.6.3,1.2.5,1.8.3.9.6,1.9.4,2.8-.7,5-6.8,5.6-9.3,2.5-1.6-1.8-1.1-5.1.5-6.8,1.6-1.5,2.8-2.1,3.4-4.8,0-.2,0-.3.2-.4h0v-.2ZM67.7,80.9c-1.3.9-1.7,2.6-.9,4,.5.9,1.4,1.5,2.5,1.4,2.8,0,4-3.8,1.8-5.3-.4-.2-.7-.6-1.2-.6s-1.6,0-2.2.5h0Z"/>
    <path class="st1" d="M69.4,88.7c-1.7,0-3.3-.7-4.3-2-1.7-2-1.1-5.4.5-7.2.3-.3.6-.6.9-.8,1.1-1,1.9-1.7,2.4-3.9h0c0-.2,0-.4.3-.5h.5c.5.2,1.4.6,2.3,1,.7.3,1.3.6,1.7.7.7.2.5.8.4,1.1v.2h0c-.2.7-.4,1.3-.3,2,0,.5.2,1,.4,1.6v.2c.5,1.1.6,2.1.4,3-.3,2.2-1.7,3.8-3.8,4.4-.5,0-1,.2-1.6.2h.2ZM69.4,74.9c-.5,2.3-1.4,3.1-2.6,4.1-.3.2-.6.5-.9.8-1.9,1.9-1.8,5-.5,6.5h0c1.2,1.5,3.4,2.2,5.4,1.7,1.9-.5,3.2-2,3.5-4h0c.2-.8,0-1.8-.4-2.7v-.2c-.2-.5-.4-1.1-.5-1.7,0-.7,0-1.5.3-2.2v-.2c0-.4,0-.5,0-.6h0c-.4-.2-1-.5-1.7-.8-.9-.4-1.8-.8-2.3-1h0v.2h-.1ZM69.4,86.6h0c-1.1,0-2.1-.6-2.7-1.6-.9-1.5-.5-3.3.9-4.3h0c.6-.5,1.7-.7,2.4-.6.4,0,.7.3,1,.5,0,0,.2,0,.2.2,1.3.9,1.5,2.5,1.1,3.6-.4,1.3-1.6,2.2-2.9,2.2h0ZM69.3,86.2h0c1.4,0,2.2-.9,2.5-1.8s.2-2.2-.9-3.1c0,0-.2,0-.2-.2-.3-.2-.5-.4-.8-.4-.6,0-1.5,0-2,.5h0c-1.2.9-1.6,2.4-.8,3.7.5.8,1.3,1.3,2.2,1.3h0Z"/>
    <path class="st2" d="M67.3,76.3c-.2,0-.4,0-.6-.2-.6-.4-1.1-.9-1.6-1.4h0c-.8-.8-1.3-1.8-1.7-3h0c-1.3-5.6,1-12,5.6-15.8.5-.3,1-.5,1.6-.5s1.4.4,1.8,1.1c.6.9.6,2.2.6,3.1s-.3,2.2-.7,3h0c-.6,1.2-1.5,1.8-2.5,1.6-.8-.2-1.6-.9-1.7-2.6v-1.5c0,0,0-.2,0-.2h0c-.3.3-.4.9-.5,1.4h0c0,.9,0,1.8.6,2.4.2.3.5.5.8.7h0c.7.6.4,1.2.2,1.7h0c0,.5-.2.9-.2,1.3v.4c0,.6.2,1.1-.3,1.7-.6.7-.9,1.7-.7,2.6,0,.3.2.5.3.8.2.4.4.8.3,1.2,0,.3-.2.6-.3.9,0,.2,0,.4-.2.6,0,.2-.2.6-.5.7h-.3ZM63.7,71.6c.3,1.1.9,2,1.6,2.7h0c.5.6.9,1.1,1.5,1.5.2,0,.3.2.4.2s.2-.2.3-.4c0-.2,0-.4.2-.6,0-.3.2-.6.3-.8,0-.3,0-.6-.3-1,0-.3-.3-.6-.3-.9-.2-1,0-2.1.8-2.9.4-.5.3-.8.2-1.4v-.4c0-.5,0-1,.2-1.4h0c.2-.7.3-.9,0-1.2h0c-.3-.3-.6-.6-.8-.9-.6-.7-.8-1.7-.7-2.6h0c0-.6.2-1.3.7-1.7h0c0,0,.3-.2.4,0,.2,0,.3.2.4.4v1.6c0,1.5.8,2.1,1.4,2.2.8.2,1.6-.4,2.1-1.4h0c.6-1.4,1-4.3,0-5.8-.3-.5-.8-.8-1.5-.9-.4,0-.9,0-1.3.4-4.5,3.7-6.7,10-5.5,15.4h0Z"/>
    <path class="st2" d="M75.7,78.6c-.4,0-.6,0-.7-.4-.2-.3,0-.7.3-.9.2,0,.5,0,.8,0h.5c0,0,.2,0,.3-.2v-.3c-.2-.2-.5-.3-.7-.4-.5-.2-1.1-.4-1.6-.7-.5-.2-1-.4-1.5-.6h0c-.2,0-.5-.2-.7-.3-1.3-.5-3-1.2-3.5-2.2-.3-.7-.3-1.5,0-2.2.3-.6.9-1,1.6-1,1.2,0,2.3,0,3.3.3.4,0,.8.2,1.3.4,2.6.7,6.1,1.7,6,4.7,0,1.2-.7,2.1-1.9,2.9-.9.6-2.2,1-3.3,1h-.2ZM75.7,77.6h-.2c0,0-.2.3,0,.4,0,0,0,.2.4.2,1.9,0,4.7-1.2,4.8-3.5,0-2.6-3.3-3.6-5.7-4.3-.5,0-.9-.3-1.3-.4-.9-.3-1.9-.4-3.1-.3-.5,0-1,.3-1.3.8-.3.6-.3,1.3,0,1.8.4.9,2.1,1.5,3.3,2,.3,0,.5.2.8.3h0c.5.2,1,.4,1.5.6s1.1.5,1.6.7c.3,0,.7.3.9.6,0,.2.2.4,0,.6,0,.2-.3.4-.5.4h-1.1Z"/>
    <path class="st2" d="M81.5,72.4c-.3,0-.6-.2-.9-.4-2.1-1.9-5.1-3.1-7.8-3.3h0c-.3,0-.5,0-.7,0-.3,0-.7-.2-1.1-.2-.6,0-.9-.2-1.1-.4-.3-.3-.3-.8-.2-1.3.3-1.3,1.2-2.2,2.5-2.6,1-.3,2.3-.3,3.8,0h.4c1.9.5,3.8,1,5.3,2.3.8.6,1.2,1.5,1.3,2.6,0,1.2-.3,2.3-1,3.2-.2.2-.4.3-.6.3h0ZM72.8,68.4c2.9,0,5.9,1.4,8.1,3.4.2.2.4.3.6.3s.2,0,.4-.2c.7-.7,1-1.8.9-2.9,0-1-.5-1.8-1.2-2.3-1.4-1.2-3.3-1.7-5.2-2.1h-.4c-3.4-.7-5.4,0-5.9,2.2,0,.4,0,.8,0,1,.2.2.4.3.8.3s.8,0,1.2.2c.2,0,.4,0,.7,0h0Z"/>
    <path class="st2" d="M83,66c-.3,0-.5-.2-.7-.3h0c-2.3-1.6-5.4-2.6-8.1-2.6s-.7,0-.8-.3h0c0-.3,0-.5,0-.8v-.3h0c0-.3,0-.6,0-.8v-.8c0-.3,0-.8.4-1,.2-.2.5-.3.8-.3,2.9-.4,6.7.3,8.8,2.7h0c.2.4.4.7.5,1.2.2.5,0,1.1,0,1.8h0c-.2.6-.4,1.4-.9,1.5h-.1ZM73.6,62.6h.5c2.8,0,6,1.1,8.3,2.7h0c.2.2.4.3.6.3.3,0,.6-.8.7-1.2h0c.2-.7.2-1.3,0-1.7,0-.4-.3-.8-.4-1h0c-2-2.3-5.7-3-8.5-2.6-.2,0-.5,0-.6.2-.2.2-.3.5-.3.8v.8c0,.3,0,.6,0,.8v.8h-.2Z"/>
    <path class="st2" d="M68.8,66.2c.2-.6.4-1,0-1.5s-.7-.6-.9-.9c-.5-.7-.8-1.6-.7-2.5,0-.5.2-1.2.6-1.6.2-.2.4,0,.5.2v1.6c0,2.8,2.7,3.3,3.8.9h0c.9-2,1.3-6.8-1.5-6.9-.5,0-1,.2-1.4.5-4.4,3.6-6.9,10-5.5,15.6.3,1,.9,2.1,1.6,2.8.5.5,1,1.1,1.7,1.5.6.4.8.2,1-.4,0-.5.4-1,.5-1.5,0-.7-.5-1.2-.6-1.9-.2-1,0-2,.8-2.7.5-.6.3-1.2.2-1.9,0-.4,0-.9.2-1.3h-.2Z"/>
    <path class="st2" d="M73.7,69.9c-1-.3-2.1-.4-3.2-.3-1.4,0-2.1,1.8-1.5,2.9.6,1.2,3,1.9,4.1,2.4h0c1,.4,2.1.9,3.1,1.3.3,0,.6.2.8.5.2.3,0,.7-.3.8-.4,0-.9-.2-1.3,0-.2,0-.3.4-.2.7,0,.2.4.3.6.3,2.1,0,4.8-1.3,5-3.7,0-3.3-4.7-4.1-7.2-4.9h0Z"/>
    <path class="st2" d="M81.7,66.5c-1.6-1.3-3.7-1.8-5.6-2.2h0c-2.5-.4-5.5-.3-6.2,2.5-.2.9,0,1.6,1.1,1.5.7,0,1.2.2,1.8.3,2.9,0,5.8,1.4,8,3.3.4.4.8.6,1.2,0,1.3-1.5,1.3-4.2-.3-5.5h0Z"/>
    <path class="st2" d="M84,62.6c0-.4-.2-.8-.5-1.1h0c-2-2.3-5.7-3.1-8.7-2.6-.3,0-.5,0-.7.3-.3.3-.3.7-.4,1.1v.6c0,.3,0,.6,0,.8,0,.4-.2.7,0,1,0,.2.4.2.7.2,2.8,0,5.9,1.1,8.2,2.6.2.2.5.4.8.3.5,0,.7-1,.8-1.5.2-.5.2-1.2,0-1.7h-.1Z"/>
    <path class="st0" d="M66.4,83.9c.3,2.3,3.1,3.2,4.8,1.8.6-.5,1-1.4,1-2.2h0c0-4.1-6.4-3.7-5.8.4h0Z"/>
    <path class="st0" d="M78.4,46.7c-.8,0-1.4.5-1.7,1.2-.9,3-1.6,6-2.3,9v.7c.2,0,.3,0,.4,0,.2-.2.2-.6.3-1,0-.6.3-1.4.6-2.2.6-2.3,1.2-4.9,1.5-5.9,0-.4.4-.8.9-.9.6,0,.9.7.7,1.2-.3,1.3-1.5,5.8-1.9,7.6,0,.2,0,.3,0,.5,0,.3-.2.5,0,.6,0,.2.4,0,.5,0h0c.2-.2.3-.5.3-.7.5-2.4,1.2-4.8,1.8-7.3.3-1.1.3-2.6-1.1-2.8h0Z"/>
    <path class="st0" d="M88.3,34.2c-.5-1-1.3-2.1-2.2-2.6,0,0-.3-.1-.4-.1-1.3,0-1.5,3.6-2.1,5.8,0,.3-.2.7-.5.9-1.1,1.1-3.9.6-4.6-.9,0-.2,0-.5,0-.8s.2-.8.3-1.4c.2-1,.6-2.2.8-3.2,0-.4.2-.7,0-.9-1-2.1-6.9,2.3-7.5,6.6-.2,1.1,0,2.3.6,3.3.6,1.3,1.5,1.9,1.9,3,.2.6.2,1.4,0,2-.3,1.8-1.5,5.8-2.1,8.4,0,.3,0,.5-.3.5-6.9-3.7-15.8,16.3-6.3,21.8.5.3.7.5.2.9-4.2,3.2-4.3,9.2.8,11.5,4.9,2.1,10.4-3.3,8-8.7,0-.2,0-.4,0-.6h0c0,0,.2-.2.4-.2,3.2,0,6.9-2.2,6.7-5.6,0-.4,0-.8.4-1.1,1.3-1.3,2.1-3.2,1.5-5.1-.3-.7,0-1.3.4-1.8,2.4-3.4-.7-7.2-4.4-7.9-.2,0-.4,0-.4-.3.5-2.1,1.5-5.7,2-7.9.2-.8.3-1.4.6-2.1.7-1.9,2.3-2.4,4-3.5,3.4-2.1,3.9-6.7,2.1-10.2h0v.2ZM69.6,55.7h0c3.9-1.5,3.9,5.8,1.8,7.8-1.2,1.2-2.6.4-3.1-.9-.2-.6-.2-1.3-.2-2s-.3-1-.7-.3c-.3.6-.3,1.4-.2,2.1,0,1.1.6,1.8,1.4,2.5,1,.8-.4,1.2.2,3.6,0,.4,0,.7-.2,1-1.1,1.3-1,2.8-.4,4.4,0,.5,0,1-.3,1.5-.2.7-.3,1.3-1.1.8-7-4.5-3.4-16.2,2.8-20.3h0v-.2ZM74.5,84.1c-.7,5-6.8,5.6-9.3,2.5-1.6-1.8-1.2-5.1.5-6.9,1.6-1.5,2.8-2.1,3.4-4.8,0-.2,0-.3.2-.4h0c0,0,.2,0,.4,0,.9.4,3.1,1.4,4,1.8.5.2.3.6.2,1.1-.2.7-.4,1.4-.3,2.1,0,.6.3,1.2.5,1.8.3.9.5,1.9.3,2.8h.1ZM80,76.7c-1.1,1.2-2.6,1.8-4.2,1.8s-.7,0-.8-.3c0-.2,0-.7.2-.9.4-.3,1.4.4,1.8-.2,0-.4-.4-.7-.8-.9-1-.4-2.1-.8-3.1-1.3h0c-1.2-.6-3.5-1.2-4.1-2.4-.4-.8-.3-1.8.3-2.5,1.9-2.1,15.5,2,10.7,6.6h0ZM81.8,72.1c-.4.3-.8,0-1.1-.2-2.3-2.2-6.7-3.5-9.8-3.5s-.6,0-.8-.2c-.2-.2-.3-.5-.3-.7,0-1,.2-1.9,1.1-2.5h0c1.2-1,2.9-1.2,4.3-.9.6,0,1.1.2,1.7.3,4,.6,8.5,4.4,4.9,7.7h0ZM83.6,61.5h0c.9,1.1.8,2.9,0,4.1-.2.4-.6.5-1,.2-2.4-1.8-5.6-2.7-8.6-2.8-.2,0-.6,0-.7-.2-.2-.3,0-.8.2-1.3,0-.3,0-.7.2-1,0-.5,0-1,.3-1.3,0-.2.3-.3.5-.3,3.2-.7,7,0,9.1,2.7h0ZM81.4,47.1c-.2.3-.3.7-.4,1.1-.8,2.7-1.5,5.6-2.2,8.3,0,.3,0,.6-.2.8,0,.2,0,.4-.2.5h-.5c-1,0-2.2-.2-3.2,0-.6.2-.9,0-1-.5-.2-.7-.2-1.3,0-1.9.8-3.3,2.1-6.7,2.4-10.1,0-.8-.2-1.7-.6-2.4-.6-1-1.4-1.8-1.7-2.9-1.1-3.1,1.1-6.5,3.9-7.8.5-.3.8-.2.7.4-.4,2.3-2.1,4.6.2,6.2.5.3,1.1.7,1.6.8h0c1.5.4,3.6.2,4.3-1.3.3-1.2.9-3.4,1.2-4.9s.2-.6.6-.3c.6.6,1,1.4,1.3,2.2.4.9.6,1.8.6,2.8.6,5.3-4.9,5.3-6.7,9h-.1Z"/>
    <path class="st4" d="M71.2,83.5c0,2.2-3.3,2.5-3.7.3-.2-1.2.7-2.2,1.9-2.2s1.8.8,1.8,1.8h0Z"/>
  </g>
  <g id="head">
    <path class="st2" d="M45.4,47.1l-1-1.8-1-4.6,1.8-.9,2.2,6.5-2,.8h0ZM44.9,45.1l.7,1.3,1-.4-1.9-5.4-.8.4.9,4.1h0Z"/>
    <path class="st4" d="M45.9,56.3c0,0,0,.3-.2.4-3.1,2.6-12.8,1-14.8-3,0,0,.2,0,.4,0,4.5,1.5,9.2,2.7,13.9,2.5h.7Z"/>
    <path class="st5" d="M42.2,59.9s0,0-.2,0c-2.3.3-4.5,0-6.6-1.2-.2,0-.4-.2-.5-.3,0,0-.2,0-.2-.2h.6c2.2.3,4.5.5,6.6,1.2,0,0,.4.2.4.3h0Z"/>
    <path class="st2" d="M42.8,35.4h-.5c-.8,0-1.7-.2-2.3-.5-.6-.2-1-.7-1.5-1.1s-.3-.3-.4-.4c-1-.8-2.7-1-4.2-1.1h-2.1c-.2,0-.4,0-.6,0h-6.1c-.4,0-.8,0-1.1,0h0c-.5,0-1,0-1.5.2-.6,0-1.2,0-1.8.2h0c-.1,0-.4,0-.6.2-.6.2-1.1.5-1.4,0-.2-.3,0-.8,0-.9s.1-.3.2-.4c.2-.4.4-.8.5-1.2.1-.3.2-.6.2-.9v-.2c0-.3.2-.6.2-1s.1-.5.2-.7c0-.3.2-.6.3-.8.1-.3.2-.6.3-1,0-.2,0-.4.1-.6.1-.6.2-1.3.4-1.9.2-.6.4-1.2,1.2-1.5.3-.1.7-.3,1-.5.2,0,.4-.2.6-.3,2.2-.9,3.7-2,5.2-3.5h0c.4-.4,1.1-1,1.6-.9h0c.1,0,.2.1.3.2.1.3,0,.8-1.2,2.4,0,0,0,.1-.1.1,0,.1-.2.2-.3.4-.3.3-.7.9-.6,1.2l.2.2c.6.1,1.2,0,1.8-.2.1,0,.3,0,.4-.1h0c1.3-.3,2.6-.8,3.8-1.7h0s.2-.1.3-.2c.6-.4,1.1-.7,1.4-.6h0c.3.4,0,1-.5,1.5,0,.1-.2.2-.2.3h0c-.3.4-.3.7-.3.9s.4.3,1.2.2c.2,0,.3,0,.5-.1h.3c.2,0,.4,0,.6-.1h.2c2-.2,3.9-1.4,5.7-2.5.2-.1.5-.3.7-.4h0c.4-.2.8-.3,1.3-.3h0c2.3.1,5.3,0,7.9-1.1,1-.4,1.4.4,1.7.8,0,.1.2.2.2.3.2.3.5.6.7,1,.3.5.6,1.1.8,1.7,0,.2.2.3.2.5.8,1.6,1.7,3.3,2,5.4,0,.2,0,.5.2.7,0,.3,0,.5.2.8h0v4.5h0v.3c0,.4,0,.7,0,.9-.2.4-.8.3-1.4.2h-.3c-.5,0-.8-.3-1-.6-1.9-2.6-6.8-2.6-9.7-1.5-.8.3-1.3.7-1.4,1v.4h0c0,0,.3.3.2.6h0c0,.2-.4.4-.6.5,0,0-.2,0-.2,0h0c-.2,0-.3.2-.4.4-.2.2-.4.4-.7.5-.5.3-1.2.4-1.9.4h0l.2-.3ZM32.6,31.6h.6c.3,0,.5,0,.8.1,1.6.2,3.3.4,4.5,1.3h0c.2.2.3.3.4.5.4.4.8.8,1.2,1,1,.4,3.2.7,4.2.2.2,0,.4-.3.6-.4.2,0,.3-.3.5-.4,0,0,.2,0,.3-.2s.2,0,.3-.2h0c-.2-.4-.3-.7-.2-1,.2-.6,1-1.1,1.7-1.4,1.5-.6,3.6-.8,5.4-.7,1.6.1,3.8.7,5,2.4.2.2.4.3.7.4h.4c.2,0,.7,0,.8,0v-5.3c0-.3,0-.5-.2-.8,0-.2,0-.5-.2-.8-.3-1.8-1-3.3-1.9-5.2,0-.1-.2-.3-.2-.5-.3-.5-.5-1.1-.8-1.6-.2-.4-.4-.6-.6-.9,0-.1-.2-.2-.2-.3h0c-.4-.6-.6-.8-1-.6-2.7,1.3-5.8,1.3-8.1,1.2-.4,0-.7,0-1,.2-.2.1-.4.3-.7.4-1.8,1.1-3.8,2.4-5.9,2.5h-1c-.2,0-.4.1-.7.1-.9,0-1.5,0-1.7-.5-.2-.4,0-.9.3-1.5,0-.1,0-.2.2-.4,0-.1.3-.4.4-.6-.2.1-.5.3-.7.4,0,.1-.3.2-.4.2-1.3.9-2.6,1.5-4,1.8-.1,0-.3,0-.4.1-.6.2-1.4.4-2.1.2h0c-.3-.1-.5-.3-.6-.6-.1-.6.4-1.2.8-1.7.1-.1.2-.2.2-.3h.1c.7-1.1,1-1.6,1.1-1.8-.3.1-.8.5-1,.7h0c-1.9,1.8-3.5,2.8-5.4,3.6-.2,0-.4.2-.6.3-.3.2-.7.3-1,.5-.5.2-.6.6-.8,1.2h0c-.2.6-.3,1.2-.4,1.8,0,.2,0,.4-.1.6,0,.4-.2.7-.3,1.1-.1.2-.2.5-.3.8,0,.2-.1.5-.2.7,0,.3-.2.7-.2,1v.2c0,.3-.1.6-.2,1s-.3.8-.5,1.2c0,.1-.1.3-.2.4v.3c.2,0,.5-.2.8-.3.3-.1.5-.2.7-.2.6-.2,1.3-.2,1.9-.2s1,0,1.5-.1c.4-.1.9-.1,1.3-.1h.6c1.2-.1,2.4,0,3.6,0h3.4l-.5.2ZM24,31.2c-.3,0-.4-.1-.5-.3-.2-.5.4-1.3,1-1.9.7-.8,1.7-1.5,2.6-2,.3-.1.6-.3.9-.4,1.7-.8,3.9-.8,6,0h0c1.3.5,2.8,1.2,3.2,2.5,0,.5,0,.9-.3,1.2-.2.2-.6.3-1,.3s-.8-.2-1.2-.4c-.2,0-.4-.2-.7-.2-.4-.1-.8-.2-1.4-.4-1.2-.3-2.3-.3-3.2-.2-.5,0-.9.1-1.4.3-.5.2-1,.4-1.5.5l-.4.2c-.2,0-.5.2-.7.3-.3.1-.5.2-.8.3-.3.1-.5.1-.7.1h.1ZM24.1,30.7h0s.2,0,.5-.1.5-.2.8-.3c.2-.1.5-.2.7-.3l.4-.2c.5-.2,1-.4,1.5-.5.5-.2,1-.2,1.5-.3,1-.1,2.2,0,3.4.2.6.1,1,.2,1.4.4.2,0,.5.2.7.3.4.1.7.3,1.1.4.2,0,.3,0,.4-.1,0-.1.2-.4,0-.7-.2-1-1.6-1.6-2.8-2.1h0c-2-.8-4-.8-5.6,0h0c-.3.1-.6.3-.9.4-1.8,1-3.2,2.6-3.3,3.1h0v-.2Z"/>
    <path class="st5" d="M55.3,8.6c.2-.1.4-.4.5-.7.5-1.3.6-2.7.6-4.1s.2-.2.5,0c1.8,1.6,2.1,4.3,1.8,6.7,0,.4,0,.6.5.5.7-.2,1.5-.4,2.2-.2.7.1,1.2.5,1.8,1,.3.3.7.6.8,1,0,.4-1,.1-1.3.1h-1.1c-.6.1-.3.6,0,.9,4.3,5.4,1.1,11.8-.2,17.9.2-5.5-1.7-11.5-4.8-16.2-.2-.2-.4-.6-.6-.6-.5-.2-1.1.3-1.5.5-.9.4-1.9.8-2.9,1-.4.1-3.2.7-2.9-.1,0-.2.3-.4.5-.6,3.7-4.1-5.5,2.3-8.1,3.5-.3.1-3.1,1.3-3.1.5s0-.5.3-.8c.2-.5.4-1,.6-1.5.2-.6.7-1.7.6-2.3-.3-.6-2.1,1.2-2.4,1.5-1.4,1.2-2.8,2.2-4.5,2.8-.6.2-1.8.5-1.1-.5.7-1.2,1.7-2.7,2.2-4,0-.2.2-.5,0-.6-.2-.2-.6,0-.8.1-2.1.9-4.3,1.6-6.4,2.2-.4.1-.4.4,0,.5.7.3,1.7.3.7,1.1-1,.8-3.9,2.5-5,2.4-.3-.1-.2-.7-.4-.8-.1,0-.3,0-.5.3-1.5,1.8-1.5,5.4-2.2,7.8-.4,1.5-1,3.6-1.9,5-.3.5-.9.7-1.4.9-.6.2-.9,0-1.3-.2-.4-.2-.8-.5-.9-1-.5-3.1-.9-7-.2-10,0-.8-1-.3-1.4-.5-.2,0-.2-.2,0-.4,1.6-2,2.5-4.4,3.8-6.5.7-1.2-1.1-.1-1.4.1-.6.4-1.2.8-.6-.2,1.7-3.3,4.6-5.9,8.3-6.3.2,0,.3,0,.4-.1.1-.2-.2-.3-.4-.4-.8-.4-2.2-.9-2.8-1.7,0-.2.4-.2.6-.2,3.7.4,7.1-1.2,10.7-2,.2,0,.6,0,.7-.2.2-.4-1.9-.8-1.1-1.2,4.8-1.4,9.8-.3,14.4,1,.4-.2-.3-1.1-.5-1.4-.4-.7.2-.6.7-.6,3.9.6,8,3.5,10.3,6.6.2.2.4.2.5.2h0l-.4-.2Z"/>
    <path class="st5" d="M34,27c1.2.4,2.7,1,3,2.2.2.8-.4,1.3-1.2,1-.3-.1-.7-.3-1.1-.4-2.6-1.1-5.7-1-8.3.2-.6.3-1.2.6-1.8.9-.5.2-1,.1-.7-.5.2-.5.7-1.1,1.2-1.5,2.2-2.4,5.9-2.8,8.9-1.9h0Z"/>
    <polygon class="st2" points="44.6 45.2 45.5 46.8 47 46.1 44.9 40.2 43.7 40.8 44.6 45.2"/>
    <path class="st2" d="M59.7,26.2c-.3-2-1.1-3.6-1.9-5.3-.3-.7-.7-1.4-1-2.1-.3-.5-.5-.9-.8-1.3-.3-.5-.7-1-1.3-.7-2.5,1.1-5.3,1.3-8,1.2-.4,0-.8,0-1.2.3-2,1.2-4.2,2.7-6.5,2.9h0c-.2,0-.5,0-.7.1-.4,0-.5.2-.9.2-1.2.1-2-.2-1.2-1.5.2-.4,1-1.3.8-1.5-.3,0-1.2.6-1.5.8-1.2.9-2.5,1.5-3.9,1.8-.8.2-1.6.5-2.4.3-1.1-.4.1-1.6.5-2.2.2-.3,1.7-2.2,1.2-2.4-.5,0-1.1.5-1.5.9-1.7,1.5-3.2,2.6-5.3,3.5-.5.2-1.1.5-1.6.7-.7.3-.8.8-1,1.4-.3.8-.4,1.6-.5,2.4-.1.6-.4,1.2-.6,1.8-.1.5-.3,1.1-.4,1.7,0,.4-.2.8-.3,1.2-.2.5-.5,1.1-.7,1.6,0,.2-.2.5,0,.6.2.3,1.3-.4,1.7-.4,1.1-.3,2.2-.2,3.3-.4.6-.2,1.2-.1,1.8-.2,1.5-.2,3.1,0,4.7,0h.7c.3,0,.5.1.9.1h1.3c1.6.2,3.8.3,5.1,1.3.5.5,1,1.2,1.8,1.4,1.1.4,3.4.7,4.5,0,.4-.2.8-.6,1.1-.8,0,0,.3-.2.5-.3h.3c2.5-.6,6.2-.6,9.2-.5.8,0,2.1.2,2.8.2h.2c.4,0,1.1.2,1.3,0,0-.2,0-.7,0-1.1v-4.5c0-.5-.2-1-.3-1.5h0l-.2.2ZM36,30.4c-.6-.1-1.2-.5-1.8-.6-.5-.2-.9-.3-1.4-.4-1.1-.2-2.2-.4-3.3-.2-.5,0-1,.1-1.5.3-.6.2-1.3.5-1.9.7-.5.2-1,.5-1.5.6-2.2.8,0-2.1,2.5-3.5.3-.2.6-.3.9-.4,1.9-.8,4-.6,5.8,0h0c1.2.4,2.7,1.1,3,2.3,0,.6-.2,1.3-.9,1.1h.1ZM46,32.9c-.4-.7.3-1.3,1.5-1.7,2.7-1,7.9-1.3,10,1.5-3.8-.4-7.7-.6-11.5.2h0Z"/>
    <path class="st2" d="M23.2,43.8c1.7,2.6,8.9,2.4,11.5,1.5,2.8-1.2,3-5.2,3.4-8,.5-3-3.2-3.1-5.5-3.3-.5,0-.9-.2-1.4-.2h0c-1.9,0-4,0-5.9,0-.6,0-1.3,0-1.8.3-1,.3-1.2,1.5-1.4,2.5-.1.9-.2,1.8-.1,2.8,0,.5.2.9.3,1.4.2,1.1.3,2.2.9,3.2h0v-.2ZM27.4,34.9h0c2-1.4,5.2-.9,6.9.8s1.3,2.1,1.2,3.4c0,5-8,5.6-9.8,1.5-.3-.6-.6-1.3-.6-2,0-1.4,1.2-2.8,2.4-3.6h-.1Z"/>
    <path class="st2" d="M62.2,39.4c-.2,1.1-.5,2-.8,3.1,0,.5-.2.9-.4,1.3-.2.6-.6,1.4-.6,2s0,.5.3.2.5-1.1.7-1.8.3-1.2.4-1.9c0-.5.3-.9.3-1.3h0c0-.6,0-1.7.2-2.2,0-.4,0,.5-.2.6h0Z"/>
    <path class="st2" d="M58.4,35.3c-.4,0-.8-.2-1.2-.3-2.2-.2-4.5-.2-6.7-.3h0c-.8,0-1.6.2-2.4.4-1,.2-1.7.7-2,1.6-.9,2.2,0,7.8,2,9,.8.5,1.8.6,2.8.7,2.3.2,5.7.6,7.7-1.1,1-.9.9-2.1.9-3.4v-3.9c0,0,0-.8,0-1.1,0-.5,0-1-.2-1.2-.2-.3-.7-.4-1.1-.5h.1ZM56,40.4c-1.2-.4-2.4-.8-3.7-.8s-1.9,0-2.8.3c-.7.2-1.4.6-2.1.7-.8,0-.8-.5-.4-1,.2-.3.6-.5.9-.7.3-.2.7-.5,1.1-.6,2.1-.8,4.5-.9,6.4.3h0c.4.3.8.6,1.1,1,.3.5.2,1-.5.8h0Z"/>
    <path class="st2" d="M11.3,44.2c.7,1.7,2.4,4.1,4.3,3.9.2,0,.4,0,.5-.2.2-.2.3-.6.3-.9v-5.6c0-.5-.2-1-.3-1.5-.2-1.4-.5-3.2-1.3-4.4-.7-1.2-2.4-1-3.4-.3-.5.4-.9,1-1.1,1.7-.6,2.2,0,5.4.9,7.4h.1ZM12.2,36.7c.4,0,.9.2,1.2.4,1,.6,2.4,2.9,2.3,4.2,0,.3-.3.4-.5.6-.1,0-.2.2-.3.4-.2.5-.1,1.2,0,1.7,0,.4.1.7,0,.8-.3,0-.6,0-.8-.3-.7-.8-.6-2.2-.1-3.1.6-1,.2-1.5-.3-2.4h0c-.1-.2-.3-.5-.5-.7-.4-.4-.9-.7-1.2-1.1-.1-.2,0-.5.2-.5h0Z"/>
    <path class="st2" d="M40.2,54.1c-1.9-.2-3.6-.6-5.4-1.2-1.3-.4-3.2-1.1-4.4-1.2h-.6c-1.6.3-2,2.1-1.9,3.7.8,10.2,17.1,14.6,21.1,4.2,3.2-7.5,0-4.8-8.8-5.5h0ZM42.6,62.9c0,.4-.7.8-1.2,1.1-1,.4-1.9.4-3,.2-.6,0-1.2-.3-1.6-.7-.5-.4-.5-1,.2-1.2h0c1.2,0,2.4.4,3.6.2h.2c.4,0,.9-.2,1.3,0,.3,0,.6.3.5.5h0ZM47.8,56.3c-.5.5-.9,1.2-1.4,1.8s-1.1,1.2-1.8,1.6c-.7.5-1.5,1-2.4,1.2-.5,0-.8,0-1.3.2-3.4.5-6.9-1.2-9.1-3.8h0c-.7-.9-1.5-2-2-3-.2-.5-.4-1.2,0-1.7.3-.3.9,0,1.2,0,.4,0,.8.2,1.2.4,1.9.8,3.9,1.4,5.9,1.7.7,0,1.3,0,2,.2.9,0,1.9.3,2.8.4h3.4c.5,0,1,0,1.5,0,.3,0,.8-.2,1,0,.2.5-.8.9-1,1.2h0Z"/>
    <path class="st2" d="M60.8,37.6v-.5h0v-.4c0-.2-.3-.5-.3-.2,0,.9-.2,3.4-.2,4.3s0,.5.2,0c.2-.7.3-1.6.4-2.3v-.8h-.1Z"/>
    <path class="st2" d="M59.2,47.1s-.3-.2-.5,0h0c-1.6.7-3.8,1.1-6.2,1-2.4,0-4.5-.7-5.8-1.6h-.2c-.4,0-.4.5-.3.9,0,.6,0,1.4-.7,2.1-1.3,1.2-3.1,1.5-4.7.9h-.2c-.3,0-.5-.2-.7-.3h.9c1,0,4.3.3,4.8-1.9h0c0-.9-.4-1.7-.9-2.5-.2-.4-.5-.8-.6-1.2h0c-.2-.6-.3-1.2-.5-1.9v-.8c0-.4-.2-.9,0-1.2,0,0,0,0,.2,0,0,0,.3.2.5,0,.2,0,.2-.4.2-.5h0c0-.8-.3-1.8-.8-2.3h0c-.7-.5-1.6-.4-2.3-.2-.6,0-1,.6-1.1,1.3-.7,3-1.8,5.2-3.1,6.6-1.7,1.7-4,2.3-6.9,1.9h0c-2.4,0-4.8-.3-6.5-1.4-1.7-1.1-2.6-3.1-2.7-6.2,0-.5-.1-1-.2-1.5v-.7c0-.5,0-1.1-.4-1.6-.3-.3-.8-.6-1.3-.5-.3,0-.5.2-.7.4h0c0,.2-.1.3-.1.5v3.9h0c0,1.8.3,5.1,1.5,8.4,1.2,3.1,2.9,5.2,5.2,6.2h0c.2,0,.6,0,.8-.7h0c.7-2.8,2.2-4.2,4.7-4.5,2.2-.3,5,.4,7.7,1,1.1.3,2.2.5,3.3.7,1.2.2,2.5.2,3.9,0,2.8-.2,5.7-.3,7.2,2.1.2.4.4.8.5,1.4h0v.3c0,.3.2.7.4,1,0,.2.3.2.6.2s.4,0,.6,0c1.9-.8,3.9-3.5,4.7-5.7.2-.5.2-.9.3-1.4v-.7h0v-.4c0-.5.2-.9,0-1.2h-.6Z"/>
    <path class="st2" d="M29.9,46.1h-1.3c-3.8-.2-5.1-1.5-5.6-2.2-.6-1-.8-2-.9-3.1v-.2c0-.2-.1-.3-.1-.5,0-.3-.1-.6-.2-1,0-.8,0-1.7.1-2.8.1-.8.3-2.2,1.5-2.7.6-.2,1.3-.3,1.9-.3h5.9c.3,0,.5,0,.8,0h1c1.6,0,3.9.3,4.9,1.6.4.5.5,1.2.4,2,0,.3,0,.7,0,1-.3,2.7-.8,6-3.4,7.1h0c-1.2.4-3,.6-4.9.6h0v.4ZM27.8,33.9h-2.4c-.6,0-1.2,0-1.7.3-.9.3-1.1,1.3-1.2,2.3-.1,1.1-.2,1.9-.1,2.7,0,.3.1.6.2.9,0,.2,0,.3.1.5v.2c.2,1,.4,2,.9,2.9,1.6,2.5,8.7,2.2,11.2,1.4,2.3-1,2.8-4.2,3.1-6.8,0-.4,0-.7,0-1,0-.7,0-1.2-.3-1.6-.8-1.1-3-1.2-4.5-1.4h-.4c-.2,0-.4,0-.6,0-.2,0-.5,0-.8,0h0c1.3.2,2.5.8,3.3,1.6.9.9,1.4,2.2,1.3,3.5,0,2.6-2,3.9-3.9,4.3-1.2.3-2.6.2-3.7-.3-1.3-.5-2.2-1.3-2.7-2.4,0,0,0-.2-.1-.3-.3-.6-.5-1.2-.5-1.8,0-1,.6-2.6,2.5-3.8h0c.7-.5,1.5-.8,2.3-.8h-1.8l-.3-.2ZM27.5,35.1c-1.1.8-2.3,2.2-2.3,3.4s.3,1.1.5,1.6c0,0,0,.2.1.3.6,1.4,2.3,2.6,4.5,2.6s.9,0,1.3,0c1.7-.3,3.5-1.5,3.5-3.8h0c0-1.3-.3-2.4-1.1-3.2-1.6-1.5-4.6-2.2-6.6-.8h0Z"/>
    <path class="st2" d="M60.5,46.4h0s-.2-.2-.2-.5c0-.5.3-1.1.5-1.6,0-.2,0-.3.2-.5.2-.5.3-.9.4-1.3,0-.4.2-.8.3-1.1.2-.6.3-1.3.5-2v-.2c0-.5,0-.6.3-.6s0,.2,0,.2v.4c0,.6,0,1.3,0,1.8h0c0,.2,0,.4-.2.6,0,.2,0,.5-.2.7,0,.7-.2,1.2-.4,1.9-.3.9-.5,1.5-.7,1.8,0,.2-.2.2-.3.2l-.2.2ZM62.1,40.5c0,.3-.2.6-.2,1s-.2.7-.3,1.1c0,.4-.2.9-.4,1.3,0,.2,0,.3-.2.5-.2.5-.4,1-.4,1.5v.2h0c.2-.3.4-.9.7-1.8.2-.6.3-1.2.4-1.8,0-.3,0-.5.2-.7,0-.2,0-.4.2-.6h0v-.6h0Z"/>
    <path class="st2" d="M54,46.9c-.9,0-1.8,0-2.5,0h-.6c-.9,0-2-.2-2.8-.8-2.2-1.4-3-7.1-2.2-9.4.4-1.2,1.4-1.6,2.2-1.8.9-.2,1.7-.4,2.4-.4h2.1c1.5,0,3.1,0,4.7.2.5,0,.9.2,1.3.3h.3c.3,0,.7.2.9.5s.2.7.2,1.1v.3h0v1.5h0v3.4h0c0,1.4.2,2.6-1,3.6h0c-1.3,1.1-3,1.3-4.8,1.3h0l-.2.3ZM50.5,35h0c-.7,0-1.5.2-2.3.4-1,.3-1.5.7-1.8,1.5h0c-.8,2.2.2,7.5,1.9,8.7.7.5,1.6.6,2.5.7h.6c2.2.2,5.2.4,6.9-1,.9-.8.8-1.8.8-3h0v-3.5h0v-1.9c0-.3,0-.6,0-.8s-.4-.2-.6-.3h-.3c-.4,0-.8-.2-1.2-.3-1.5,0-3.1-.2-4.6-.2h-2.1l.3-.3ZM47.2,40.9c-.4,0-.6-.2-.7-.3-.2-.3,0-.7.3-1.1.2-.2.5-.5.8-.7,0,0,0,0,.2,0,.4-.3.7-.5,1.1-.7h0c2.5-.9,4.9-.8,6.6.4h0c.4.3.9.6,1.2,1,.2.3.3.7,0,1,0,0-.3.4-.9.2h0c-.2,0-.3,0-.5-.2-1-.3-2-.7-3.1-.6h0c-.9,0-1.9,0-2.8.3-.3,0-.5.2-.8.3-.4.2-.8.3-1.3.4h-.2.1ZM49.1,38.5c-.3.2-.7.3-1,.6h-.2c-.2.3-.5.5-.7.7h0c-.2.2-.2.4-.2.5h.3c.4,0,.8-.2,1.2-.4.3,0,.6-.2.8-.3,1-.3,2-.3,2.9-.3s2.2.3,3.3.7c.2,0,.3,0,.5.2h.3v-.3c-.2-.4-.6-.6-1-.9h0c-1.6-1.1-3.8-1.2-6.1-.3h0v-.2Z"/>
    <path class="st2" d="M15.4,48.4c-2.1,0-3.8-2.6-4.4-4.1h0c-.8-2.1-1.6-5.3-.9-7.6.2-.8.6-1.4,1.1-1.8.7-.5,1.6-.8,2.4-.6.6,0,1.1.5,1.4,1,.8,1.3,1.1,3.2,1.3,4.5h0c0,.3,0,.6,0,.9,0,.2,0,.5.1.7h0v5.6c0,.4,0,.8-.4,1.1-.2.2-.4.2-.7.3h-.3.3ZM11.5,44.1h0c.7,1.6,2.3,4,4.1,3.8.1,0,.3,0,.4-.2h0c.1,0,.2-.4.2-.7v-6,.2h0c0,.4-.3.5-.5.7h-.1s-.2.2-.2.3c-.2.4,0,1.1,0,1.6s.2.9-.1,1.1h0c-.3.2-.7,0-1.1-.4h0c-.8-1-.6-2.5-.1-3.4h0c.5-.8.2-1.2-.3-2.1h0c-.1-.2-.3-.5-.4-.6-.2-.2-.4-.3-.5-.5-.3-.2-.5-.4-.7-.7-.1-.2-.2-.4,0-.6,0-.2.2-.3.5-.3s.9,0,1.4.4c.9.5,1.9,2,2.3,3.3v-.3c-.2-1.3-.5-3.1-1.2-4.3-.2-.4-.6-.6-1-.7-.6,0-1.4,0-2,.5-.4.3-.8.8-.9,1.5-.6,2.1,0,5.1.9,7.2h0l-.7.2ZM14.3,44.3c.2.2.3.3.4.3v-.5c-.1-.6-.3-1.3,0-1.9,0-.2.2-.4.4-.5,0,0,.1,0,.2,0,.2,0,.2-.2.2-.2,0-1.1-1.3-3.3-2.2-3.9-.6-.3-.9-.4-1.1-.3h0c.1.2.4.4.6.5.2.2.4.3.6.5.2.2.4.4.5.7h0c.5.9.9,1.6.3,2.7-.4.8-.5,2,0,2.8h.1Z"/>
    <path class="st2" d="M40.1,65.8c-.6,0-1.2,0-1.8,0-2.6-.4-5.2-1.6-7.1-3.3-2.1-1.9-3.4-4.3-3.6-7-.2-2.2.6-3.7,2.1-4h.7c.9,0,2.1.5,3.2.9.4,0,.8.3,1.2.4,1.9.6,3.6,1,5.3,1.2,2.3.2,4.2,0,5.8,0,2.3,0,3.7,0,4.2.7.5.8.3,2.1-1,5-.9,2.3-2.5,4-4.5,5.1-1.4.7-3,1-4.6,1h0ZM29.9,52h0c-1.7.3-1.7,2.7-1.6,3.3.5,5.5,5.5,9.1,10.2,9.8,2.2.3,4.3,0,6.1-.8,2-1,3.4-2.6,4.3-4.8h0c1.1-2.7,1.4-4,1-4.5-.4-.6-1.7-.5-3.8-.5h-5.8c-1.8-.2-3.6-.6-5.5-1.2-.4,0-.8-.2-1.2-.4-1.1-.3-2.3-.7-3.1-.8h-.6ZM39.8,64.6c-.5,0-.9,0-1.4-.2h0c-.6,0-1.2-.3-1.7-.8-.4-.3-.5-.7-.4-1.1,0-.2.2-.5.8-.6h0c.6,0,1.2,0,1.8,0s1.2.2,1.7,0h.6c.3,0,.6,0,1,0,.5,0,.8.4.8.8,0,.6-1,1.1-1.4,1.3-.6.3-1.2.4-1.8.4h0ZM38.5,63.9c.9.2,1.9.2,2.8-.2.7-.3,1.1-.7,1.1-.9s-.2-.2-.3-.2h-1.4c-.6,0-1.2,0-1.9,0-.6,0-1.2-.2-1.7,0h0s-.3,0-.3.2c0,0,0,.3.2.5.3.3.8.5,1.5.7h0ZM39.7,61.3c-2.9,0-6-1.5-8.2-4h0c-.4-.5-1.5-1.8-2.1-3.1h0c-.1-.3-.5-1.3,0-2h0c.4-.4.9-.2,1.3,0h.2c.2,0,.4,0,.6.2.2,0,.4,0,.6.2h0c1.8.8,3.7,1.3,5.9,1.7.4,0,.8,0,1.2,0h.8c1,0,2,.3,2.8.4h3.7c.4,0,.8,0,1.2,0h0c.3,0,.8,0,1.1.2h0c.3.5-.3.9-.7,1.2-.2,0-.3.2-.4.3h0c-.2.3-.5.6-.7.9-.2.3-.5.6-.8.9-.6.6-1.2,1.2-1.8,1.6-.9.6-1.8,1-2.5,1.2-.4,0-.7,0-1,0h-1.5l.2.2ZM32,57c2.4,2.7,5.8,4.2,8.9,3.7h.3c.3,0,.6,0,.9,0,.7-.2,1.5-.5,2.3-1.1.6-.4,1.2-.9,1.7-1.5h0c.3-.3.5-.6.7-.9.2-.3.5-.6.7-.9,0,0,.3-.2.5-.4,0,0,.5-.3.5-.5h-.7c-.5,0-.9,0-1.3,0h-3.6c-.8,0-1.8-.2-2.8-.4h-.7c-.4,0-.8,0-1.3,0-2.2-.4-4.2-1-6-1.7-.2,0-.4,0-.6-.2-.2,0-.4,0-.6-.2h-.2c-.2,0-.6-.2-.8,0-.3.3-.2.9,0,1.4.4.8,1.2,2,2,3h0v-.2Z"/>
    <path class="st5" d="M17.9,36.6c-.2,6.2.4,14.9,6.4,17.9.5,0,.7-.6.8-1,2.4-7.4,10.7-3,16.8-2.3,2,0,4.2-.2,6.2,0,1.8,0,3.4.7,4.2,2.2.2.4.4.9.5,1.5,0,.4.2.9.4,1.2s.7.2,1,0c1.8-.8,3.4-3.1,4.3-5,0,0,0-.2,0-.2q0,0,0,0c-4.8,20.9-22.8,25.9-37,9-1-1.2-2-2.5-2.7-3.9-2.9-6.1-1.1-12.7-2.9-19-.1-.4-.4-1,.2-1.2.4,0,1.4-.4,1.8-.2,0,0-.2.8-.2,1h.1ZM29.8,51.8c-.9.2-1.5.9-1.7,1.8-.2.9-.2,1.9,0,2.8,1.8,9.9,17.5,13.4,21.2,3.1.5-1.2,2.1-4.9,0-5.1-4.8.3-9.9,0-14.5-1.3-1-.3-1.9-.6-2.9-.9-.6-.2-1.2-.4-1.9-.3h-.2Z"/>
    <path class="st4" d="M35.5,38.9c.5,5.1-8,6-9.9,1.7-.2-.4-.2-.9-.1-1.4,1.1-4.9,8.5-5.1,10-.3h0ZM29.9,35.6c-1,.2-1.6.8-2,1.5-1,2-.2,5.2,2.4,5.3,4.6.3,4.1-7.7-.4-6.9h0Z"/>
    <path class="st5" d="M37.1,62.3c.7,0,1.4.3,2.1.3s1.6,0,2.4,0c.3,0,.7,0,.9,0,.4.5-.6,1.2-1.1,1.4-.3.2-.7.3-1.1.3-1.2,0-3.2,0-3.8-1.3-.2-.4,0-.8.6-.7h0Z"/>
    <path class="st3" d="M29.9,35.6c4.5-.8,5,7.2.4,6.9-2.6,0-3.5-3.3-2.4-5.3.4-.8,1.1-1.4,2-1.5h0ZM29.9,37.1c-1,.3-1.3,1.5-1.1,2.4.2,1.2,1.6,1.9,2.6,1.2.6-.3.9-1,.8-1.7,0-1.3-1.1-2.3-2.4-2h.1Z"/>
    <path class="st0" d="M48.5,54.9c-5.9,1-12-.2-17.6-2.4h0c-.4-.2-.9-.3-1.1,0-.4.5-.2,1.2,0,1.7.4.8,1,1.7,1.6,2.5.6.7,1.2,1.4,2,2,4.4,3.6,10.6,3.1,13.9-1.7.3-.5.7-.9,1.2-1.2.4-.2.9-.8,0-.9h0ZM42.2,59.9s0,0-.2,0c-2.3.3-4.5,0-6.6-1.2-.2,0-.4-.2-.5-.3,0,0-.2,0-.2-.2h.6c2.2.3,4.5.5,6.6,1.2,0,0,.4.2.4.3h0ZM45.7,56.7c-3.1,2.6-12.8,1-14.8-3,0,0,.2,0,.4,0,4.5,1.5,9.2,2.7,13.9,2.5h.7c0,0,0,.3-.2.4h0Z"/>
    <path class="st0" d="M63.5,38.1c0-.6.3-1.1.5-1.7.8-3.3-2.5-1.4-1.9-3.6,1.2-5.8,4.4-12.2,1.4-17.8,0-.3-.3-.5,0-.6.9-.2,3.3,1.8,2.2-1-.8-2-3.1-3.9-5.3-4.3-.5-.2-.5-.6-.5-1-.2-2.6-1.5-5.7-4.3-6.3-.9-.2-1,.5-.9,1.2,0,.4.5,3.1-.2,3-.2,0-.5-.3-.6-.5-2.9-2.8-6.8-4.7-10.8-5.3-5.7-.9-.2,1.7-2.6,1.2-4.5-.9-9.8-1.1-13.9,1-.2,0-.4.3-.4.4,0,.6,1,.8-.3,1.2-2.6.7-5.2,1.2-7.8.4-.9-.3-1.4-.2-1.1.9.2.7.5,1.2.9,1.7.2.2.4.5.4.8s-.3.5-.5.6c-2.9,1.9-5.8,5.2-6.4,8.7-.4,2.1,2.2-.6.9,1.5-.4.7-.9,1.4-1.4,2-.9,1-1.9,2.1-.2,2.3h0c.9,0,1.4,0,1.2,1.1-.3,2.8,0,5.6.4,8.3,0,.6-.2,1-.7,1.2-5.8,3.2-1.7,15.5,4.1,15.9.3,0,.6,0,.8.3.2.2.2.6.3.8.5,4.6,2.8,8.2,6,11.3,14.1,16.6,33.2,8.5,37.2-11.7.2-2,.8-1.9,1.7-3.4,1.4-2.4,2.2-6,1.9-8.8h0v.2ZM11.8,22c-.2,0-.3-.2-.1-.5,1.6-2,2.5-4.4,3.8-6.5.7-1.2-1.1-.1-1.4.1-.7.4-1.2.8-.6-.2,1.7-3.3,4.6-5.9,8.3-6.3.2,0,.3,0,.4-.1s-.3-.3-.4-.4c-.8-.4-2.2-.9-2.8-1.7,0,0,0-.2.1-.2h.4c3.7.4,7.1-1.2,10.7-2,.2,0,.6,0,.7-.2.2-.4-1.6-.8-1.3-1.1,4.6-1.5,9.8-.5,14.4.9.8,0-.2-1.1-.3-1.4-.4-.7.2-.6.7-.6,3.7.6,7.8,3.3,10,6.2.2.2.5.6.8.5h0c.2-.1.4-.4.5-.7.5-1.3.6-2.7.6-4.1s.2-.2.5,0c1.8,1.6,2.1,4.3,1.8,6.7,0,.4,0,.6.5.5.6-.1,1.3-.4,2-.3,1,.1,2,.9,2.7,1.7,0,.2.2.3,0,.5,0,.1-.3,0-.5,0-.9,0-3.1-.5-1.7,1.1,4.1,5.4,1,11.7-.4,17.7.2-5.5-1.7-11.5-4.8-16.2-.2-.2-.4-.6-.6-.6-.5-.2-1.1.3-1.5.5-.9.4-1.9.8-2.9,1-.4.1-3.2.7-2.9-.1,0-.2.3-.4.5-.6,3.7-4.1-5.5,2.3-8.1,3.5-.4.1-3.1,1.3-3.1.5s0-.5.3-.8c.2-.5.4-1,.6-1.5.2-.6.7-1.7.6-2.3-.3-.6-2.1,1.2-2.4,1.5-1.4,1.2-2.8,2.2-4.5,2.8-.6.2-1.8.5-1.1-.5.7-1.2,1.6-2.7,2.2-4,0-.2.2-.5,0-.6-.2-.2-.6,0-.8.1-2.1.9-4.3,1.6-6.4,2.2-.4.2-.4.4,0,.5.7.3,1.8.3.7,1.1-1,.8-3.8,2.5-5,2.4-.3-.1-.2-.7-.4-.8-.1,0-.3,0-.5.3-1.5,1.8-1.5,5.4-2.2,7.8-.4,1.5-1,3.6-1.9,5-.3.5-.8.7-1.4.8-.6.2-.9,0-1.4-.2-.4-.2-.8-.5-.9-1-.5-3.1-.9-7-.2-10,0-.7-1-.4-1.4-.5h0ZM16.4,48.1c-.5.4-1.2.2-1.8,0-1.6-.6-2.6-2.3-3.3-3.8h0c-1.2-2-1.6-5.2-.9-7.4.4-1.3,1.2-2.3,2.6-2.4,4.2-.4,3.5,9.9,3.7,12.7,0,.3,0,.7-.2.9h-.1ZM59.2,48.1c-3.1,23-24.3,29.4-38.4,10.3-.7-.9-1.2-1.8-1.6-2.8-2.8-6.1-1-12.6-2.9-18.9,0-.3-.2-.6,0-.8.3-.2,1.1-.2,1.6-.3h0c3.9-.8,1,5.8,4.3,9.7.4.4.7.6,1.1.8.5.3,1.1.5,1.7.7,3.8,1.1,8.7,1,11.8-1,1-.8,1.6-2,2-3.2s.7-2.5,1.1-3.7c.2-.5.4-.9.8-1.2.8-.5,2.3-.5,2.9.3.5.8.5,1.7.7,2.6,0,.7.2,1.4.4,2,.4,1.3.8,2.8,1.8,3.7,3.2,2.1,8.6,2.3,12,.8.8-.4.8,0,.7.8h0v.2ZM26.1,33.5h4c.8,0,1.6.2,2.4.2,2.1.2,5.4.4,5.6,2.9,0,7.3-2.7,10.1-9.2,9.3-5.3-.3-6.7-2-6.9-7.2h0c-.2-3.8.3-5.3,4.1-5.2h0ZM59.6,38.9c-.2,2.5.7,5.9-1.9,7.1-1.9,1.1-7.9,1.1-10.1-.7-1.7-1.5-1.8-4.2-2-6.3-.2-3.3,1.3-4.2,4.7-4.4h0c1.7,0,8.1,0,9.1,1s.2.5.2.8c0,.8,0,1.6,0,2.4h0ZM60.1,32.6c0,.3,0,.5-.2.7-.2.3-.7.2-1.1.2s-.8,0-1.2-.2c-.5,0-2.3-.3-2.5-.3h-5.7s-1.1,0-1.9.3c-.7.2-1.2.4-1.7.7-1,.7-1.2,1.2-2.5,1.3-1,0-2.2,0-3-.4-.8-.3-1.2-.9-1.8-1.4-.3-.2-.6-.4-.9-.5-3-1-6.3-1.1-9.4-1.1s-4.6,0-6.8.3c-.8,0-1.4.4-2.1.7-.8.2-.8-.2-.5-.7,1.2-2.9,1.9-6,2.6-9,.2-.9.3-1.1,1.2-1.4,2.9-.9,5.2-2.4,7.3-4.6.2-.2,1.2-.9,1.4-.6,0,.4-1,1.8-1.3,2.3-.3.4-.5.7-.8,1-.4.5-.8,1.1,0,1.3h1.4c.4,0,.8-.1,1.2-.3,1.6-.5,3.1-1.3,4.5-2.2.2,0,.6-.4.7-.1,0,.5-.8,1.3-1,1.9-.5,1.5,2.4.8,3.1.7h0c2.2-.5,4.4-1.7,6.3-2.9.3-.2.5-.3.8-.4s.6,0,1,0c2.5.2,5.1,0,7.5-1.1.2-.1.5-.2.7-.2.4,0,.7.5.9.9,3.3,5.8,4.4,8.5,4.1,15.3h0l-.3-.2ZM60.2,41v-.3c0-.9.2-3.3.2-4.1v-.2c0,0,.3.6.3.8h0v1.2c0,.4,0,.8-.2,1.2,0,.5,0,1-.3,1.3,0,.2,0,.2-.2.2h.2ZM60.8,45.9c0,0-.2.3-.3.3-.2-.4.3-1.5.5-2,.4-1,.6-2.1.9-3.1h0c0-.5.4-1.6.5-2,0,0,0-.2,0,0,0,2-.7,5.2-1.5,6.8h-.1Z"/>
    <path class="st0" d="M40,50.5c1.5.6,3.5.5,5-.3h0c3-2.1,0-4.7-.5-7.3-.2-.5-.5-3-1.1-3-.6.4.2,3.6.4,4.3.3,1.1,1.1,2,1.5,3.1.2.7-.2,1.4-.8,1.8-1.2.8-2.8.8-4.2.6-1.2-.2-1,.5-.2.8h-.1Z"/>
    <path class="st0" d="M55.4,38.7h0c-2.2-1.2-5.2-1-7.4.2-.4.2-1,.6-1.2,1-.3.5.2.7.6.6.8,0,1.6-.6,2.4-.7,1-.2,2.1-.4,3.2-.2.6,0,1.2,0,1.7.3.4,0,1.5.7,1.8.4.2-.5-.7-1.2-1.1-1.5h0Z"/>
    <path class="st0" d="M25.6,39.1c1.5-4.7,7.4-5.1,9.6-.8,0,.2.2.3.3.3.2,0,0-1-.2-1.2-.2-.5-.4-1-.7-1.4-.5-.5-1.1-1-1.7-1.3h0c-2.9-1.3-6.7-.2-7.5,3.1-.1.4-.2.8-.2,1.1,0,.5.2.8.4.2h0Z"/>
    <path class="st0" d="M13.6,37.3c-.4-.3-1-.6-1.4-.5-.4,0-.3.5,0,.8.3.2.6.4.9.7.5.5.8,1,1.1,1.5.1.2.3.5.2.8,0,.4-.3.6-.5,1-.4.9-.3,2.4.3,3.1.4.4.9.5.7-.2,0-.4-.2-.8-.2-1.3s0-.9.3-1.2c.2-.2.4-.4.5-.8,0-1.3-1-2.8-2-3.8h0Z"/>
    <path class="st0" d="M29.9,37.1h0c-1,.3-1.3,1.5-1.1,2.4.2,1.2,1.6,1.9,2.6,1.2.6-.3.9-1,.8-1.7,0-1.3-1.1-2.3-2.4-2h.1Z"/>
    <path class="st5" d="M49.6,30.7c2.2,0,6.7,0,7.7,1.8,0,.2.2.5,0,.6,0,0-.4,0-.6,0-.4,0-.7-.3-1.2-.4-1.7-.3-3.5-.4-5.1,0h-.7c-.8,0-1.8.5-2.7.7-1.2.2-1.4-1-.6-1.7.9-.6,2.1-.9,3.2-1h0Z"/>
  </g>
  <g id="left-hand">
    <path class="st2" d="M8.4,51.2c.7,0,1.5.3,2.1.8h0c2.7,2.4,1.4,6.1,1.5,9.2,0,.4.1.9,0,1.3-.1.2-.4.3-.6.4-.5,0-1,.2-1.3.5-.3.2-.2.6,0,.8.2,0,.4,0,.7,0h.8c.7,0,1.3-.4,2.1-.5,1.1,0,2.5-.3,3.9-.3,3,0,5.6.8,4.4,4.1-.3.6-.8.9-1.4,1h-.9c-.8,0-1.6,0-2.5.2-.5,0-1,0-1.5.2-.7.2-.8.9-.1,1.2h.9c1.2,0,3.7-.4,4.8-.4h.2c.5,0,.8.4,1,.8.5.8.6,1.8.1,2.6-.3.7-1.1,1-1.8,1.2-.3,0-.6.2-1,.2-.8,0-2.3.2-3.3.3-.4,0-.9,0-1.2.3-.4.4,0,.9.4,1h1.5c.9,0,1.9,0,2.7-.4.3,0,.6,0,.9,0h.4c.4,0,.6.2.7.8.1.7,0,1.6-.2,2.2-1.6,3.4-5.6,4.3-9.1,4.5-.5,0-1,0-1.5,0h0c-.4,0-.7,0-1-.2-1.6-.5-3.2-.8-4.6-1.8-3-2.1-4.1-6.2-3.7-9.8.5-2.2,1.1-4.1,2.3-6,.5-.8,1.1-1.5,1.6-2.3,1.7-2.7,2.3-5.9,1.2-9,0-.3-.2-.6-.3-1-.3-1.5.7-2.2,1.8-2.2M8.4,50.7v.5-.5h0c-.8,0-1.5.3-1.9.8-.3.3-.6,1-.3,1.9,0,.3.2.6.3.9h0c1,2.8.6,5.9-1.2,8.6-.2.3-.4.7-.7,1-.3.4-.6.8-.8,1.3-1.1,1.7-1.8,3.6-2.4,6.1h0c-.2,2,0,3.9.6,5.7.7,1.9,1.8,3.5,3.3,4.6,1.2.8,2.5,1.2,3.8,1.6.3,0,.6.2.9.3h0c.3,0,.7.2,1.2.2h1.5c5-.3,8.1-1.8,9.5-4.8.3-.7.5-1.7.3-2.5,0-.4-.2-1.1-1.2-1.1s-.3,0-.4,0h-.1c-.3,0-.5,0-.8,0h0c-.8.2-1.7.3-2.6.3h-1.4c-.1,0-.2,0-.2-.2h0c.2-.2.7-.2.9-.2h.2c1,0,2.3-.2,3.1-.3s.8-.2,1-.3c.8-.3,1.6-.6,2-1.4.5-.9.4-2.1-.2-3.1-.3-.4-.7-1-1.5-1h-.2c-1,0-3,.2-4.3.3h-1.3c-.1,0-.2,0-.2,0,0,0,0,0,.2-.2h0c.3,0,.6,0,1-.2h1c.6,0,1.2,0,1.9,0h.9c.8,0,1.5-.5,1.8-1.2h0c.5-1.3.4-2.4-.1-3.2-.7-1-2.3-1.5-4.7-1.5s-2.8.2-3.9.3c-.4,0-.8,0-1.2.2-.3,0-.6.2-.9.2h-1.2c.2-.2.6-.3,1-.4h0c.3,0,.7-.2.9-.6h0c.2-.4.1-.8.1-1.1v-.4h0c0-.8,0-1.6.1-2.5.1-1.2.2-2.5,0-3.7-.2-1.4-.8-2.5-1.8-3.4h0c-.6-.6-1.5-1-2.4-1h.4Z"/>
    <path class="st2" d="M21.4,69.5h-.2c-1,0-3,.2-4.3.3h-1.4c-.2,0-.3-.2-.3-.4s.2-.3.4-.4c.3,0,.7,0,1-.2h1c.6,0,1.3,0,1.9,0h.9c.7,0,1.3-.4,1.6-1.1h0c.4-1.2.4-2.2-.1-3-.7-1-2.2-1.5-4.5-1.5s-2.8.2-3.9.3c-.4,0-.8,0-1.1.2-.3,0-.6.2-.9.2h-.7c-.2,0-.5,0-.6,0h0s-.1,0-.1-.2v-.2h0c.2-.2.7-.3,1.1-.4h0c.3,0,.6-.2.8-.5h0c.1-.3.1-.6.1-1v-.4h0c0-.8,0-1.7.1-2.5.2-2.5.4-5-1.7-6.9h0c-.6-.6-1.4-.9-2.3-.9s-1.4.3-1.8.7c-.2.3-.5.9-.3,1.7,0,.3.2.6.3.9h0c1,2.9.6,6-1.2,8.8-.2.3-.5.7-.7,1.1-.3.4-.6.8-.8,1.2-1.1,1.7-1.8,3.5-2.4,6h0c-.4,4.1,1.1,8,3.8,10,1.1.8,2.4,1.2,3.7,1.6.3,0,.6.2.9.3.3,0,.7.2,1.1.2h1.6c4.9-.3,7.9-1.8,9.3-4.6.3-.7.4-1.6.3-2.4-.1-.4-.3-.9-.9-.9s-.2,0-.4,0h-.1c-.3,0-.5,0-.8,0h0c-.8.2-1.7.3-2.6.4h-1.4c-.2,0-.4-.2-.4-.3,0,0,0-.2.1-.3.2-.2.7-.2,1-.3h.2c1,0,2.3-.2,3.1-.3.4,0,.7-.2,1-.3.8-.2,1.5-.6,1.9-1.3.5-.9.4-2-.2-2.8-.2-.4-.6-.9-1.2-.9h0v.2Z"/>
    <path class="st0" d="M22.8,68.7c0-.2,0-.5.1-.8.6-1.4.5-3-.5-4.2-2-2.2-5.4-1.7-8.1-1.4-.4,0-.9,0-1.1-.3-.4-1,0-2.1,0-3.1.8-3.6-1.2-9.6-5.6-9h0c-3.4.7-2.6,3.6-2,6.4.2,1,.2,2,0,3-.6,3.6-3.7,5.9-4.8,9.6-.2.6-.3,1.2-.5,1.9-3.6,17.2,24.8,17.8,22.2,4.3,0-.4.3-.7.5-1,.9-1.4.8-3.2-.2-4.6-.2-.2-.4-.5-.4-.7h.4ZM15.3,75.7c.4.7,3.4,0,4.6,0s1.5-.4,1.9.2c.8,1.4,0,3.3-1.1,4.4-.6.6-1.4,1.1-2.1,1.5-4.1,2.3-9.6,2.1-13.4-.7-1.4-1.1-2.3-2.5-2.9-4.2-1.1-2.8-.7-6.2.5-8.9.6-1.5,1.5-2.6,2.2-3.8,2.1-2.8,2.9-5.6,1.9-9.4-.2-1.1-.8-2.4.2-3.2h0c1.2-1,2.7-.3,3.7.7.8.8,1.2,1.8,1.4,2.8.2.6.3,1.3.2,1.9,0,1.6-.6,3.2-.4,4.8,0,.6.1,1.1-.6,1.2-.4,0-1,.2-1.3.4-.6.5,0,.9.5.8.8,0,1.5-.3,2.3-.4,2.9-.3,8-1.7,9.2,1.9.2.9-.1,2.1-.9,2.6-.2,0-.4.2-.7.2-.9.2-1.9.3-2.8.3s-2.3,0-2.6.6v.3c.3.6,1.3.4,1.9.4,1.2,0,2.5-.2,3.8-.4.9,0,1.5.3,1.9,1.1.7,1.4,0,3.1-1.4,3.6-.8.3-1.7.3-2.5.5-.6,0-1.3.2-2,.2s-1.5.2-1.4.8h0v-.2Z"/>
  </g>
</svg>